# Blender 5.0.1
# www.blender.org
mtllib Arrow.mtl
o Cube
v -1.314253 0.220879 0.000000
v -1.382535 0.179097 -0.030086
v 1.172891 0.186135 -0.402548
v 1.113906 0.176083 -0.438096
v 1.108696 0.220879 -0.399689
v -0.262761 0.220879 -0.151211
v -0.249639 0.183536 -0.196175
v -0.293391 0.183073 -0.218655
v -0.335055 0.220879 -0.184016
v -0.296863 0.182386 -0.925397
v -0.340283 0.220879 -0.888071
v -0.293391 0.183302 -0.882779
v -0.346009 0.182493 -0.947440
v -0.382477 0.182629 -0.920667
v -0.401792 0.267067 -0.119166
v -0.260908 0.267067 -0.047745
v 1.013453 0.267067 -0.260691
v 1.213262 0.131072 -0.325649
v -0.249639 0.183536 -0.196175
v 1.113906 0.176083 -0.438096
v -0.168487 0.135449 -0.239771
v 1.029093 0.129767 -0.452246
v -0.259685 0.139849 -0.281746
v -0.259685 0.140028 -0.819719
v -1.355955 0.140453 -0.088843
v -0.443922 0.143293 -0.901034
v -1.383254 0.179380 0.000000
v -1.382535 0.179097 0.030086
v 1.172891 0.186135 0.402548
v 1.113906 0.176083 0.438096
v 1.108696 0.220879 0.399689
v -0.262761 0.220879 0.151211
v -0.249639 0.183536 0.196175
v -0.293391 0.183073 0.218655
v -0.335055 0.220879 0.184016
v -0.296863 0.182386 0.925397
v -0.340283 0.220879 0.888071
v -0.293391 0.183302 0.882779
v -0.346009 0.182493 0.947440
v -0.382477 0.182629 0.920667
v -0.401792 0.267067 0.119166
v -0.260908 0.267067 0.047745
v -0.428687 0.182466 0.879515
v 1.013453 0.267067 0.260691
v 1.213262 0.131072 0.325649
v -0.249639 0.183536 0.196175
v 1.113906 0.176083 0.438096
v -0.168487 0.135449 0.239771
v 1.029093 0.129767 0.452246
v -0.259685 0.139849 0.281746
v -0.259685 0.140028 0.819719
v -1.355955 0.140453 0.088843
v -0.443922 0.143293 0.901034
v -0.397687 0.220879 -0.835730
v -0.397687 0.220879 0.835730
v -1.194292 0.271152 -0.015667
v -1.194292 0.271152 0.015667
v -0.399739 0.264264 0.717543
v -0.399739 0.264264 -0.717543
v -0.339700 0.220879 -0.809524
v -0.339700 0.220879 0.809524
v -0.293391 0.000000 -0.218655
v 1.113906 0.000000 -0.438096
v -0.382477 0.000000 -0.920667
v 1.113906 0.000000 -0.438096
v -0.259685 0.000000 -0.281746
v -0.443922 0.000000 -0.901034
v -1.383254 0.000000 0.000000
v -0.293391 0.000000 0.218655
v 1.113906 0.000000 0.438096
v -0.382477 0.000000 0.920667
v 1.113906 0.000000 0.438096
v -0.259685 0.000000 0.281746
v -0.443922 0.000000 0.901034
v -1.382535 0.000000 -0.030086
v -0.249639 0.000000 -0.196175
v 1.172891 0.000000 -0.402548
v -0.293391 0.000000 -0.882779
v -0.346009 0.000000 -0.947440
v -0.296863 0.000000 -0.925397
v -0.249639 0.000000 -0.196175
v -0.168487 0.000000 -0.239771
v 1.029093 0.000000 -0.452246
v -0.259685 0.000000 -0.819719
v -1.355955 0.000000 -0.088843
v 1.213262 0.000000 -0.325649
v -1.382535 0.000000 0.030086
v -0.249639 0.000000 0.196175
v 1.172891 0.000000 0.402548
v -0.293391 0.000000 0.882779
v -0.346009 0.000000 0.947440
v -0.296863 0.000000 0.925397
v -0.249639 0.000000 0.196175
v -0.168487 0.000000 0.239771
v 1.029093 0.000000 0.452246
v -0.259685 0.000000 0.819719
v -1.355955 0.000000 0.088843
v 1.213262 0.000000 0.325649
v -1.314253 -0.220879 0.000000
v -1.382535 -0.179097 -0.030086
v 1.172891 -0.186135 -0.402548
v 1.113906 -0.176083 -0.438096
v 1.108696 -0.220879 -0.399689
v -0.262761 -0.220879 -0.151211
v -0.249639 -0.183536 -0.196175
v -0.293391 -0.183073 -0.218655
v -0.335055 -0.220879 -0.184016
v -0.296863 -0.182386 -0.925397
v -0.340283 -0.220879 -0.888071
v -0.293391 -0.183302 -0.882779
v -0.346009 -0.182493 -0.947440
v -0.382477 -0.182629 -0.920667
v -0.401792 -0.267067 -0.119166
v -0.260908 -0.267067 -0.047745
v 1.013453 -0.267067 -0.260691
v 1.213262 -0.131072 -0.325649
v -0.249639 -0.183536 -0.196175
v 1.113906 -0.176083 -0.438096
v -0.168487 -0.135449 -0.239771
v 1.029093 -0.129767 -0.452246
v -0.259685 -0.139849 -0.281746
v -0.259685 -0.140028 -0.819719
v -1.355955 -0.140453 -0.088843
v -0.443922 -0.143293 -0.901034
v -1.383254 -0.179380 0.000000
v -1.382535 -0.179097 0.030086
v 1.172891 -0.186135 0.402548
v 1.113906 -0.176083 0.438096
v 1.108696 -0.220879 0.399689
v -0.262761 -0.220879 0.151211
v -0.249639 -0.183536 0.196175
v -0.293391 -0.183073 0.218655
v -0.335055 -0.220879 0.184016
v -0.296863 -0.182386 0.925397
v -0.340283 -0.220879 0.888071
v -0.293391 -0.183302 0.882779
v -0.346009 -0.182493 0.947440
v -0.382477 -0.182629 0.920667
v -0.401792 -0.267067 0.119166
v -0.260908 -0.267067 0.047745
v -0.428687 -0.182466 0.879515
v 1.013453 -0.267067 0.260691
v 1.213262 -0.131072 0.325649
v -0.249639 -0.183536 0.196175
v 1.113906 -0.176083 0.438096
v -0.168487 -0.135449 0.239771
v 1.029093 -0.129767 0.452246
v -0.259685 -0.139849 0.281746
v -0.259685 -0.140028 0.819719
v -1.355955 -0.140453 0.088843
v -0.443922 -0.143293 0.901034
v -0.397687 -0.220879 -0.835730
v -0.397687 -0.220879 0.835730
v -1.194292 -0.271152 -0.015667
v -1.194292 -0.271152 0.015667
v -0.399739 -0.264264 0.717543
v -0.399739 -0.264264 -0.717543
v -0.339700 -0.220879 -0.809524
v -0.339700 -0.220879 0.809524
vn -0.5153 0.8568 -0.0204
vn 0.3144 0.6387 -0.7023
vn 0.2637 0.7854 -0.5600
vn 0.6286 0.7748 -0.0679
vn -0.3523 0.8010 -0.4839
vn 0.8820 -0.0000 0.4712
vn -0.1254 0.6928 -0.7101
vn 0.2453 0.8031 -0.5429
vn -0.3043 -0.0000 -0.9526
vn 0.6491 0.7607 -0.0022
vn -0.3967 0.8083 -0.4350
vn -0.9997 -0.0000 -0.0239
vn -0.0000 1.0000 -0.0000
vn 0.8065 0.5913 -0.0000
vn -0.0678 0.9115 -0.4057
vn 0.2101 0.8855 -0.4145
vn 0.1646 -0.0000 -0.9864
vn -0.1466 0.5203 -0.8413
vn -0.6650 -0.0000 0.7468
vn 0.7887 0.6147 0.0002
vn -0.5530 0.5578 -0.6189
vn 0.4092 -0.0000 -0.9124
vn -0.3865 0.9223 -0.0000
vn 0.4760 0.8795 -0.0000
vn 0.4363 0.8998 -0.0000
vn -0.5153 0.8568 0.0204
vn 0.3144 0.6387 0.7023
vn 0.2637 0.7854 0.5600
vn 0.6286 0.7748 0.0679
vn -0.3523 0.8010 0.4839
vn 0.8820 -0.0000 -0.4712
vn -0.1254 0.6928 0.7101
vn 0.2453 0.8031 0.5429
vn -0.3043 -0.0000 0.9526
vn 0.6491 0.7607 0.0022
vn -0.3967 0.8083 0.4350
vn -0.9997 -0.0000 0.0239
vn 0.5678 0.8231 -0.0019
vn -0.0678 0.9115 0.4057
vn 0.2101 0.8855 0.4145
vn 0.1646 -0.0000 0.9864
vn -0.1466 0.5203 0.8413
vn -0.3438 0.8558 0.3864
vn 0.7887 0.6147 -0.0002
vn 1.0000 -0.0000 -0.0000
vn -0.5539 0.5559 0.6198
vn 0.4092 -0.0000 0.9124
vn 0.5162 -0.0000 0.8565
vn 0.1831 0.8965 0.4035
vn -0.6650 -0.0000 -0.7468
vn 0.5162 -0.0000 -0.8565
vn -0.3905 0.8112 0.4352
vn -0.3698 0.8344 0.4088
vn 0.0045 1.0000 -0.0047
vn -0.5530 0.5578 0.6189
vn -0.3703 0.8339 -0.4094
vn 0.1831 0.8965 -0.4035
vn 0.0052 1.0000 -0.0000
vn 0.0045 1.0000 0.0047
vn -0.3438 0.8558 -0.3864
vn 0.1528 0.9286 -0.3382
vn 0.6257 0.7801 -0.0046
vn 0.5813 0.8137 0.0043
vn 0.6257 0.7801 0.0046
vn 0.1528 0.9286 0.3382
vn -0.0641 0.9330 -0.3540
vn -0.0641 0.9330 0.3540
vn 0.5813 0.8137 -0.0043
vn 0.5678 0.8231 0.0019
vn -0.1747 -0.0000 0.9846
vn -0.4732 -0.0000 0.8809
vn 0.9967 -0.0000 0.0812
vn 0.8819 -0.0000 0.4714
vn 0.8854 -0.0000 0.4648
vn -0.9111 -0.0000 0.4122
vn -0.1747 -0.0000 -0.9846
vn -0.4732 -0.0000 -0.8809
vn 0.9967 -0.0000 -0.0812
vn 0.8819 -0.0000 -0.4714
vn 0.8854 -0.0000 -0.4648
vn -0.9111 -0.0000 -0.4122
vn -0.5918 -0.0000 0.8061
vn 0.4570 -0.0000 0.8895
vn -0.5918 -0.0000 -0.8061
vn 0.4570 -0.0000 -0.8895
vn -0.5153 -0.8568 -0.0204
vn 0.3144 -0.6387 -0.7023
vn 0.2637 -0.7854 -0.5600
vn 0.6286 -0.7748 -0.0679
vn -0.3523 -0.8010 -0.4839
vn -0.1254 -0.6928 -0.7101
vn 0.2453 -0.8031 -0.5429
vn 0.6491 -0.7607 -0.0022
vn -0.3967 -0.8083 -0.4350
vn -0.0000 -1.0000 -0.0000
vn 0.8065 -0.5913 -0.0000
vn -0.0678 -0.9115 -0.4057
vn 0.2101 -0.8855 -0.4145
vn -0.1466 -0.5203 -0.8413
vn 0.7887 -0.6147 0.0002
vn -0.5530 -0.5578 -0.6189
vn -0.3865 -0.9223 -0.0000
vn 0.4760 -0.8795 -0.0000
vn 0.4363 -0.8998 -0.0000
vn -0.5153 -0.8568 0.0204
vn 0.3144 -0.6387 0.7023
vn 0.2637 -0.7854 0.5600
vn 0.6286 -0.7748 0.0679
vn -0.3523 -0.8010 0.4839
vn -0.1254 -0.6928 0.7101
vn 0.2453 -0.8031 0.5429
vn 0.6491 -0.7607 0.0022
vn -0.3967 -0.8083 0.4350
vn 0.5678 -0.8231 -0.0019
vn -0.0678 -0.9115 0.4057
vn 0.2101 -0.8855 0.4145
vn -0.1466 -0.5203 0.8413
vn -0.3438 -0.8558 0.3864
vn 0.7887 -0.6147 -0.0002
vn -0.5539 -0.5559 0.6198
vn 0.1831 -0.8965 0.4035
vn -0.3905 -0.8112 0.4352
vn -0.3698 -0.8344 0.4088
vn 0.0045 -1.0000 -0.0047
vn -0.5530 -0.5578 0.6189
vn -0.3703 -0.8339 -0.4094
vn 0.1831 -0.8965 -0.4035
vn 0.0052 -1.0000 -0.0000
vn 0.0045 -1.0000 0.0047
vn -0.3438 -0.8558 -0.3864
vn 0.1528 -0.9286 -0.3382
vn 0.6257 -0.7801 -0.0046
vn 0.5813 -0.8137 0.0043
vn 0.6257 -0.7801 0.0046
vn 0.1528 -0.9286 0.3382
vn -0.0641 -0.9330 -0.3540
vn -0.0641 -0.9330 0.3540
vn 0.5813 -0.8137 -0.0043
vn 0.5678 -0.8231 0.0019
vt 0.625000 0.124185
vt 0.617722 0.128795
vt 0.613665 0.136475
vt 0.616281 0.586240
vt 0.604886 0.583333
vt 0.630261 0.585087
vt 0.869778 0.585246
vt 0.850635 0.583333
vt 0.843601 0.580270
vt 0.875000 0.584306
vt 0.844475 0.492640
vt 0.875000 0.509807
vt 0.843993 0.511909
vt 0.625000 0.242258
vt 0.609797 0.243669
vt 0.619185 0.240084
vt 0.844593 0.487809
vt 0.875000 0.518118
vt 0.625000 0.235299
vt 0.644521 0.585096
vt 0.657867 0.184676
vt 0.657867 0.184676
vt 0.875000 0.518118
vt 0.625000 0.235299
vt 0.750000 0.409802
vt 0.750000 0.409802
vt 0.619117 0.234941
vt 0.652891 0.280419
s 0
usemtl Dark_Blue_Base
f 62/9/6 66/9/6 23/9/6 8/9/6
f 64/16/9 67/16/9 26/16/9 14/16/9
f 41/10/13 42/7/13 16/7/13
f 29/4/14 45/4/14 18/4/14 3/4/14
f 6/7/15 16/7/15 17/20/15
f 9/10/16 15/10/16 16/7/16
f 65/5/17 83/5/17 22/5/17 20/5/17
f 19/8/18 20/5/18 22/5/18 21/8/18
f 97/2/19 74/16/19 53/16/19 52/2/19
f 12/13/20 8/9/20 23/9/20 24/13/20
f 2/2/21 14/16/21 26/16/21 25/2/21
f 79/17/22 13/17/22 10/11/22 80/11/22
f 44/20/13 17/20/13 16/7/13
f 57/21/23 56/22/23 1/1/23
f 44/20/25 31/6/25 5/6/25
f 69/9/31 34/9/31 50/9/31 73/9/31
f 71/16/34 40/16/34 53/16/34 74/16/34
f 59/25/38 15/10/38 9/10/38
f 44/20/39 42/7/39 32/7/39
f 42/7/40 41/10/40 35/10/40
f 55/24/13 37/12/13 61/23/13
f 72/5/41 47/5/41 49/5/41 95/5/41
f 46/8/42 48/8/42 49/5/42 47/5/42
f 57/21/43 1/1/43 55/24/43 58/26/43
f 38/13/44 51/13/44 50/9/44 34/9/44
f 73/9/45 50/9/45 51/13/45 96/13/45
f 43/27/46 53/16/46 40/16/46
f 91/17/47 92/11/47 36/11/47 39/17/47
f 32/7/49 42/7/49 35/10/49
f 85/2/50 25/2/50 26/16/50 67/16/50
f 86/4/45 18/4/45 45/4/45 98/4/45
f 56/22/54 15/10/54 59/25/54
f 15/10/13 41/10/13 16/7/13
f 28/2/55 52/2/55 53/16/55 43/27/55
f 6/7/57 9/10/57 16/7/57
f 41/10/58 15/10/58 56/22/58 57/21/58
f 41/10/59 57/21/59 58/26/59
f 1/1/60 56/22/60 59/25/60 54/19/60
f 54/19/61 59/25/61 60/28/61
f 58/26/63 61/23/63 35/10/63
f 58/26/65 55/24/65 61/23/65
f 11/14/13 54/19/13 60/28/13
f 17/20/25 44/20/25 5/6/25
f 5/6/66 6/7/66 17/20/66
f 31/6/67 44/20/67 32/7/67
f 42/7/13 44/20/13 16/7/13
f 60/28/68 59/25/68 9/10/68
f 41/10/69 58/26/69 35/10/69
f 48/8/70 94/8/70 95/5/70 49/5/70
f 46/8/71 93/8/71 94/8/71 48/8/71
f 38/13/73 90/13/73 96/13/73 51/13/73
f 29/4/74 89/4/74 98/4/74 45/4/74
f 28/2/75 87/2/75 97/2/75 52/2/75
f 22/5/76 83/5/76 82/8/76 21/8/76
f 21/8/77 82/8/77 81/8/77 19/8/77
f 24/13/79 84/13/79 78/13/79 12/13/79
f 18/4/80 86/4/80 77/4/80 3/4/80
f 25/2/81 85/2/81 75/2/81 2/2/81
f 23/9/45 66/9/45 84/13/45 24/13/45
f 62/9/6 106/9/6 121/9/6 66/9/6
f 64/16/9 112/16/9 124/16/9 67/16/9
f 139/10/95 114/7/95 140/7/95
f 127/4/96 101/4/96 116/4/96 143/4/96
f 104/7/97 115/20/97 114/7/97
f 107/10/98 114/7/98 113/10/98
f 65/5/17 118/5/17 120/5/17 83/5/17
f 117/8/99 119/8/99 120/5/99 118/5/99
f 97/2/19 150/2/19 151/16/19 74/16/19
f 110/13/100 122/13/100 121/9/100 106/9/100
f 100/2/101 123/2/101 124/16/101 112/16/101
f 79/17/22 80/11/22 108/11/22 111/17/22
f 142/20/95 114/7/95 115/20/95
f 155/21/102 99/1/102 154/22/102
f 142/20/104 103/6/104 129/6/104
f 69/9/31 73/9/31 148/9/31 132/9/31
f 71/16/34 74/16/34 151/16/34 138/16/34
f 157/25/114 107/10/114 113/10/114
f 142/20/115 130/7/115 140/7/115
f 140/7/116 133/10/116 139/10/116
f 153/24/95 159/23/95 135/12/95
f 72/5/41 95/5/41 147/5/41 145/5/41
f 144/8/117 145/5/117 147/5/117 146/8/117
f 155/21/118 156/26/118 153/24/118 99/1/118
f 136/13/119 132/9/119 148/9/119 149/13/119
f 73/9/45 96/13/45 149/13/45 148/9/45
f 141/27/120 138/16/120 151/16/120
f 91/17/47 137/17/47 134/11/47 92/11/47
f 130/7/121 133/10/121 140/7/121
f 85/2/50 67/16/50 124/16/50 123/2/50
f 86/4/45 98/4/45 143/4/45 116/4/45
f 154/22/124 157/25/124 113/10/124
f 113/10/95 114/7/95 139/10/95
f 126/2/125 141/27/125 151/16/125 150/2/125
f 104/7/127 114/7/127 107/10/127
f 139/10/128 155/21/128 154/22/128 113/10/128
f 139/10/129 156/26/129 155/21/129
f 99/1/130 152/19/130 157/25/130 154/22/130
f 152/19/131 158/28/131 157/25/131
f 156/26/133 133/10/133 159/23/133
f 156/26/135 159/23/135 153/24/135
f 109/14/95 158/28/95 152/19/95
f 115/20/104 103/6/104 142/20/104
f 103/6/136 115/20/136 104/7/136
f 129/6/137 130/7/137 142/20/137
f 140/7/95 114/7/95 142/20/95
f 158/28/138 107/10/138 157/25/138
f 139/10/139 133/10/139 156/26/139
f 146/8/70 147/5/70 95/5/70 94/8/70
f 144/8/71 146/8/71 94/8/71 93/8/71
f 136/13/73 149/13/73 96/13/73 90/13/73
f 127/4/74 143/4/74 98/4/74 89/4/74
f 126/2/75 150/2/75 97/2/75 87/2/75
f 120/5/76 119/8/76 82/8/76 83/5/76
f 119/8/77 117/8/77 81/8/77 82/8/77
f 122/13/79 110/13/79 78/13/79 84/13/79
f 116/4/80 101/4/80 77/4/80 86/4/80
f 123/2/81 100/2/81 75/2/81 85/2/81
f 121/9/45 122/13/45 84/13/45 66/9/45
usemtl Emission_Edges
f 1/1/1 2/2/1 27/3/1
f 3/4/2 4/5/2 5/6/2
f 6/7/3 7/8/3 8/9/3 9/10/3
f 10/11/4 11/12/4 12/13/4
f 11/14/5 13/15/5 14/16/5
f 6/7/7 5/6/7 4/5/7 7/8/7
f 11/12/8 10/11/8 13/17/8
f 60/18/10 9/10/10 8/9/10 12/13/10
f 54/19/11 11/14/11 14/16/11
f 75/2/12 68/3/12 27/3/12 2/2/12
f 7/8/13 4/5/13 20/5/13 19/8/13
f 31/6/24 29/4/24 3/4/24 5/6/24
f 1/1/26 27/3/26 28/2/26
f 29/4/27 31/6/27 30/5/27
f 32/7/28 35/10/28 34/9/28 33/8/28
f 36/11/29 38/13/29 37/12/29
f 37/14/30 40/16/30 39/15/30
f 32/7/32 33/8/32 30/5/32 31/6/32
f 37/12/33 39/17/33 36/11/33
f 38/13/35 34/9/35 35/10/35 61/23/35
f 55/24/36 40/16/36 37/14/36
f 87/2/37 28/2/37 27/3/37 68/3/37
f 33/8/13 46/8/13 47/5/13 30/5/13
f 70/5/13 30/5/13 47/5/13 72/5/13
f 89/4/48 29/4/48 30/5/48 70/5/48
f 63/5/13 65/5/13 20/5/13 4/5/13
f 77/4/51 63/5/51 4/5/51 3/4/51
f 55/24/52 43/27/52 40/16/52
f 1/1/53 28/2/53 43/27/53 55/24/53
f 1/1/56 54/19/56 14/16/56 2/2/56
f 11/12/62 60/18/62 12/13/62
f 37/12/64 38/13/64 61/23/64
f 36/11/72 92/11/72 90/13/72 38/13/72
f 33/8/13 88/8/13 93/8/13 46/8/13
f 12/13/78 78/13/78 80/11/78 10/11/78
f 19/8/13 81/8/13 76/8/13 7/8/13
f 40/16/82 71/16/82 91/15/82 39/15/82
f 34/9/83 69/9/83 88/8/83 33/8/83
f 13/15/84 79/15/84 64/16/84 14/16/84
f 7/8/85 76/8/85 62/9/85 8/9/85
f 99/1/86 125/3/86 100/2/86
f 101/4/87 103/6/87 102/5/87
f 104/7/88 107/10/88 106/9/88 105/8/88
f 108/11/89 110/13/89 109/12/89
f 109/14/90 112/16/90 111/15/90
f 104/7/91 105/8/91 102/5/91 103/6/91
f 109/12/92 111/17/92 108/11/92
f 158/18/93 110/13/93 106/9/93 107/10/93
f 152/19/94 112/16/94 109/14/94
f 75/2/12 100/2/12 125/3/12 68/3/12
f 105/8/13 117/8/13 118/5/13 102/5/13
f 129/6/103 103/6/103 101/4/103 127/4/103
f 99/1/105 126/2/105 125/3/105
f 127/4/106 128/5/106 129/6/106
f 130/7/107 131/8/107 132/9/107 133/10/107
f 134/11/108 135/12/108 136/13/108
f 135/14/109 137/15/109 138/16/109
f 130/7/110 129/6/110 128/5/110 131/8/110
f 135/12/111 134/11/111 137/17/111
f 136/13/112 159/23/112 133/10/112 132/9/112
f 153/24/113 135/14/113 138/16/113
f 87/2/37 68/3/37 125/3/37 126/2/37
f 131/8/13 128/5/13 145/5/13 144/8/13
f 70/5/13 72/5/13 145/5/13 128/5/13
f 89/4/48 70/5/48 128/5/48 127/4/48
f 63/5/13 102/5/13 118/5/13 65/5/13
f 77/4/51 101/4/51 102/5/51 63/5/51
f 153/24/122 138/16/122 141/27/122
f 99/1/123 153/24/123 141/27/123 126/2/123
f 99/1/126 100/2/126 112/16/126 152/19/126
f 109/12/132 110/13/132 158/18/132
f 135/12/134 159/23/134 136/13/134
f 134/11/72 136/13/72 90/13/72 92/11/72
f 131/8/13 144/8/13 93/8/13 88/8/13
f 110/13/78 108/11/78 80/11/78 78/13/78
f 117/8/13 105/8/13 76/8/13 81/8/13
f 138/16/82 137/15/82 91/15/82 71/16/82
f 132/9/83 131/8/83 88/8/83 69/9/83
f 111/15/84 112/16/84 64/16/84 79/15/84
f 105/8/85 106/9/85 62/9/85 76/8/85
